<svg xmlns="http://www.w3.org/2000/svg" version="1.1" xmlns:xlink="http://www.w3.org/1999/xlink" xmlns:svgjs="http://svgjs.dev/svgjs" width="68" height="35"><svg width="68" height="35" viewBox="0 0 68 35" fill="none" xmlns="http://www.w3.org/2000/svg">
<path d="M63.6694 19.1264C63.3784 19.0848 63.0874 19.0432 62.7964 19.0017C60.8854 18.9185 59.0144 18.2119 57.6844 16.8402L57.6434 16.7987C56.2714 15.427 55.5234 13.5565 55.5234 11.6444C55.5234 1.79319 43.928 -3.652 36.4471 2.79079C35.6574 3.49742 34.8678 4.24561 34.0366 5.03537C30.3376 8.73478 25.1009 13.9721 18.7421 16.2167C16.6225 16.9649 14.2535 16.4246 12.6742 14.845C11.5105 13.6812 10.804 12.1017 10.8455 10.439C10.8455 10.0233 10.8455 9.56611 10.7208 9.10888C10.2637 6.94743 8.47654 5.24321 6.31544 4.91067C2.69964 4.37031 -0.375861 7.44622 0.164439 11.0625C0.496939 13.2239 2.20094 15.0113 4.36204 15.4685C4.65304 15.5101 4.94394 15.5517 5.23484 15.5932C7.14664 15.6764 9.01694 16.383 10.3884 17.7547L10.4299 17.7962C11.8014 19.1679 12.5911 21.0384 12.5911 22.992C12.5911 32.8433 24.1866 38.2885 31.6676 31.8457C32.4572 31.1391 33.2469 30.3909 34.0781 29.6011C37.777 25.9017 42.9721 20.7059 49.331 18.4197C51.4504 17.6715 53.8194 18.2119 55.3984 19.7914C56.5624 20.9553 57.2694 22.5348 57.2274 24.1559C57.2274 24.5716 57.2274 25.0288 57.3524 25.486C57.8094 27.6475 59.5964 29.3517 61.7574 29.6842C65.3734 30.2246 68.4494 27.1487 67.9084 23.5324C67.4934 21.3294 65.7894 19.542 63.6694 19.1264Z" fill="#76B82A"></path>
</svg><style>@media (prefers-color-scheme: light) { :root { filter: none; } }
@media (prefers-color-scheme: dark) { :root { filter: none; } }
</style></svg>