<svg xmlns="http://www.w3.org/2000/svg" version="1.1" xmlns:xlink="http://www.w3.org/1999/xlink" xmlns:svgjs="http://svgjs.dev/svgjs" width="512" height="512"><svg width="512" height="512" viewBox="0 0 512 512" fill="none" xmlns="http://www.w3.org/2000/svg">
<path d="M475.123 268.916C472.966 268.608 470.81 268.299 468.653 267.991C454.49 267.374 440.623 262.131 430.766 251.953L430.462 251.645C420.293 241.467 414.749 227.588 414.749 213.401C414.749 140.305 328.811 99.9025 273.366 147.707C267.513 152.951 261.661 158.502 255.501 164.362C228.086 191.811 189.274 230.672 142.146 247.327C126.437 252.878 108.879 248.869 97.1746 237.149C88.5499 228.513 83.3137 216.794 83.6212 204.457C83.6212 201.372 83.6212 197.98 82.697 194.587C79.3093 178.549 66.0635 165.904 50.0466 163.437C23.2483 159.427 0.45436 182.25 4.45877 209.083C6.92308 225.12 19.5522 238.383 35.5691 241.775C37.7258 242.084 39.8818 242.392 42.0378 242.7C56.207 243.318 70.0686 248.561 80.2335 258.738L80.541 259.046C90.7058 269.224 96.5586 283.103 96.5586 297.599C96.5586 370.695 182.498 411.098 237.943 363.293C243.795 358.05 249.648 352.498 255.809 346.638C283.223 319.189 321.726 280.636 368.855 263.673C384.562 258.121 402.12 262.131 413.823 273.851C422.45 282.487 427.69 294.206 427.378 306.235C427.378 309.319 427.378 312.712 428.305 316.104C431.692 332.142 444.936 344.787 460.952 347.254C487.752 351.264 510.55 328.441 506.54 301.609C503.464 285.262 490.835 272 475.123 268.916Z" fill="#76B82A"></path>
</svg><style>@media (prefers-color-scheme: light) { :root { filter: none; } }
@media (prefers-color-scheme: dark) { :root { filter: none; } }
</style></svg>