<svg width="74" height="74" fill="none" xmlns="http://www.w3.org/2000/svg"><path d="M56.333 33.768V12.294A7.263 7.263 0 0049.07 5.03H11.596a7.263 7.263 0 00-7.263 7.263v21.474a7.263 7.263 0 007.264 7.263H49.07a7.263 7.263 0 007.263-7.263z" fill="#76B82A"/><path d="M70.333 54.768V33.294a7.263 7.263 0 00-7.263-7.263H25.596a7.263 7.263 0 00-7.263 7.263v21.474a7.263 7.263 0 007.264 7.263H63.07a7.263 7.263 0 007.263-7.263z" fill="#fff"/><path d="M28.333 47.847v2.368c0 1.003.813 1.816 1.816 1.816h2.869a1.816 1.816 0 001.815-1.816v-2.368a1.816 1.816 0 00-1.815-1.816h-2.869a1.816 1.816 0 00-1.816 1.816z" fill="#76B82A" stroke="#76B82A" stroke-width="4" stroke-linecap="round"/></svg>