<svg width="74" height="74" fill="none" xmlns="http://www.w3.org/2000/svg"><path d="M35.159 6.05a4 4 0 015.016 0l3.803 3.06a4 4 0 002.933.862l4.855-.52a4 4 0 014.22 2.713l1.544 4.631a4 4 0 002.002 2.31l4.365 2.189a4 4 0 012.084 4.562l-1.205 4.732a4 4 0 00.435 3.026l2.489 4.2a4 4 0 01-.714 4.965l-3.571 3.33a4 4 0 00-1.27 2.78l-.178 4.88a4 4 0 01-3.284 3.79l-4.805.87a4 4 0 00-2.571 1.652l-2.787 4.01a4 4 0 01-4.813 1.412l-4.512-1.865a4 4 0 00-3.057 0l-4.512 1.865a4 4 0 01-4.813-1.413l-2.787-4.009a4 4 0 00-2.571-1.652l-4.804-.87a4 4 0 01-3.285-3.79l-.178-4.88a4 4 0 00-1.27-2.78l-3.57-3.33a4 4 0 01-.715-4.965l2.49-4.2a4 4 0 00.434-3.026l-1.204-4.732a4 4 0 012.083-4.562l4.365-2.189a4 4 0 002.002-2.31l1.545-4.631a4 4 0 014.22-2.712l4.854.519a4 4 0 002.933-.862l3.804-3.06z" fill="#fff"/><path d="M28.667 36.066l5.08 5.08c.709.71 1.858.71 2.568 0l12.15-12.15" stroke="#76B82A" stroke-width="4" stroke-linecap="round"/></svg>