<svg width="101" height="35" fill="none" xmlns="http://www.w3.org/2000/svg"><g clip-path="url(#clip0_81_23664)"><path d="M43.06 17.598c0 4.69-3.669 8.148-8.173 8.148-4.503 0-8.173-3.457-8.173-8.148 0-4.724 3.67-8.148 8.173-8.148 4.504 0 8.174 3.424 8.174 8.148zm-3.577 0c0-2.932-2.127-4.937-4.596-4.937-2.468 0-4.595 2.005-4.595 4.937 0 2.902 2.127 4.937 4.595 4.937 2.469 0 4.596-2.039 4.596-4.937z" fill="#EA4335"/><path d="M60.695 17.598c0 4.69-3.67 8.148-8.173 8.148-4.504 0-8.174-3.457-8.174-8.148 0-4.72 3.67-8.148 8.174-8.148 4.503 0 8.173 3.424 8.173 8.148zm-3.578 0c0-2.932-2.127-4.937-4.595-4.937-2.47 0-4.596 2.005-4.596 4.937 0 2.902 2.127 4.937 4.596 4.937 2.468 0 4.595-2.039 4.595-4.937z" fill="#FBBC05"/><path d="M77.592 9.942V24.57c0 6.017-3.549 8.475-7.744 8.475-3.949 0-6.326-2.641-7.222-4.801l3.115-1.297c.555 1.326 1.914 2.89 4.103 2.89 2.686 0 4.35-1.656 4.35-4.775V23.89h-.125c-.8.989-2.344 1.852-4.29 1.852-4.075 0-7.807-3.549-7.807-8.115 0-4.6 3.732-8.177 7.806-8.177 1.944 0 3.486.863 4.291 1.822h.125V9.946h3.398v-.004zm-3.145 7.685c0-2.869-1.913-4.966-4.349-4.966-2.469 0-4.537 2.097-4.537 4.966 0 2.84 2.068 4.908 4.537 4.908 2.436 0 4.35-2.068 4.35-4.908z" fill="#4285F4"/><path d="M83.194 1.368v23.878h-3.49V1.368h3.49z" fill="#34A853"/><path d="M96.793 20.28l2.778 1.851c-.897 1.326-3.057 3.611-6.789 3.611-4.629 0-8.085-3.578-8.085-8.148 0-4.845 3.486-8.147 7.685-8.147 4.228 0 6.296 3.365 6.972 5.183l.37.926-10.891 4.51c.834 1.635 2.13 2.47 3.949 2.47 1.822 0 3.086-.897 4.011-2.256zm-8.548-2.932l7.281-3.023c-.4-1.018-1.605-1.727-3.023-1.727-1.819 0-4.35 1.606-4.258 4.75z" fill="#EA4335"/><path d="M13.504 15.478v-3.457h11.649c.114.603.172 1.315.172 2.087 0 2.593-.709 5.8-2.994 8.085-2.222 2.314-5.062 3.549-8.823 3.549-6.973 0-12.836-5.68-12.836-12.652C.672 6.118 6.535.44 13.508.44c3.857 0 6.605 1.513 8.67 3.486l-2.44 2.44c-1.48-1.39-3.486-2.47-6.234-2.47C8.413 3.895 4.43 8 4.43 13.09c0 5.092 3.983 9.195 9.074 9.195 3.303 0 5.183-1.326 6.388-2.531.977-.977 1.62-2.373 1.874-4.28l-8.262.004z" fill="#4285F4"/></g><defs><clipPath id="clip0_81_23664"><path fill="#fff" transform="translate(.54 .266)" d="M0 0h99.919v33.796H0z"/></clipPath></defs></svg>