<svg width="19" height="19" fill="none" xmlns="http://www.w3.org/2000/svg"><g clip-path="url(#clip0_81_23463)"><path d="M10.107 0H3.511a2 2 0 00-2 2v12.667a2 2 0 002 2h6.596a2 2 0 002-2V2a2 2 0 00-2-2z" fill="#309BF9" fill-opacity=".85"/><path d="M15.944 1.636h-6.27a2 2 0 00-2 2v13.117a2 2 0 002 2h6.27a2 2 0 002-2V3.636a2 2 0 00-2-2z" fill="#B7DCFD"/><path d="M14.392 10.634l4.184-2.416m-8.214 0l10.955-6.324" stroke="#fff" stroke-width="3" stroke-linecap="round"/></g><defs><clipPath id="clip0_81_23463"><path fill="#fff" d="M0 0h19v19H0z"/></clipPath></defs></svg>