<svg width="19" height="19" fill="none" xmlns="http://www.w3.org/2000/svg"><g clip-path="url(#clip0_81_23420)"><path d="M6.514 1.24H2a2 2 0 00-2 2v10.188a2 2 0 002 2h4.514a2 2 0 002-2V3.24a2 2 0 00-2-2zm-4.264 0h4.013V1a1 1 0 00-1-1H3.25a1 1 0 00-1 1v.24z" fill="#76B82A" fill-opacity=".35"/><path d="M1.447 12.937a1 1 0 001 1h3.62a1 1 0 001-1V3.942a1 1 0 00-1-1h-3.62a1 1 0 00-1 1v8.995z" fill="#76B82A"/><path d="M17 4.384h-4.514a2 2 0 00-2 2v10.19a2 2 0 002 2H17a2 2 0 002-2V6.383a2 2 0 00-2-2z" fill="#FDE9B7"/><path d="M12.737 4.385h4.012v-.24a1 1 0 00-1-1h-2.012a1 1 0 00-1 1v.24z" fill="#FDE9B7"/><path d="M11.934 16.081a1 1 0 001 1h3.619a1 1 0 001-1v-4.43a1 1 0 00-1-1h-3.62a1 1 0 00-1 1v4.43z" fill="#F9C130"/></g><defs><clipPath id="clip0_81_23420"><path fill="#fff" d="M0 0h19v19H0z"/></clipPath></defs></svg>