<svg width="33" height="10" fill="none" xmlns="http://www.w3.org/2000/svg"><path fill-rule="evenodd" clip-rule="evenodd" d="M9 .745v.004c-.003 0-1.242-.004-1.572 1.18-.303 1.085-1.157 4.082-1.18 4.166h-.236s-.873-3.065-1.18-4.17C4.502.741 3.26.745 3.26.745H.426v9.008H3.26v-5.35h.235l1.652 5.35h1.966l1.654-5.346H9v5.346h2.832V.745H9.001zm10.349 0s-.83.074-1.22.944l-2.006 4.406h-.237V.745h-2.832v9.008h2.676s.869-.079 1.258-.944l1.967-4.406h.236v5.35h2.832V.745H19.35zm3.934 4.091v4.917h2.832V6.882h3.068c1.337 0 2.47-.854 2.89-2.046h-8.79z" fill="#4DB45E"/><path fill-rule="evenodd" clip-rule="evenodd" d="M29.18.745h-6.298a4.524 4.524 0 004.449 3.698h4.853c.044-.205.063-.414.063-.63A3.067 3.067 0 0029.18.745z" fill="url(#paint0_linear_2064_3061)"/><defs><linearGradient id="paint0_linear_2064_3061" x1="22.882" y1="2.594" x2="32.247" y2="2.594" gradientUnits="userSpaceOnUse"><stop stop-color="#00B4E6"/><stop offset=".3" stop-color="#00B4E6"/><stop offset="1" stop-color="#088CCB"/></linearGradient></defs></svg>