<svg width="34" height="35" fill="none" xmlns="http://www.w3.org/2000/svg"><g clip-path="url(#clip0_81_23748)"><path d="M8.608 29.88l.575.288c2.398 1.434 5.084 2.103 7.77 2.103 8.44 0 15.347-6.885 15.347-15.3 0-4.016-1.63-7.936-4.508-10.805-2.878-2.869-6.715-4.495-10.84-4.495-8.44 0-15.347 6.885-15.25 15.396 0 2.869.862 5.642 2.301 8.032l.384.574-1.535 5.642 5.756-1.434z" fill="#00E676"/><path d="M29.09 4.933C25.94 1.717 21.586-.029 17.139-.029 7.689-.029.093 7.598.185 16.88c0 2.94.834 5.79 2.224 8.362L0 33.971l8.986-2.297c2.502 1.378 5.281 2.022 8.06 2.022C26.403 33.696 34 26.069 34 16.787c0-4.502-1.76-8.73-4.91-11.854zM17.139 30.847c-2.501 0-5.003-.643-7.133-1.93l-.556-.276-5.374 1.379 1.39-5.238-.37-.551C1.018 17.706 2.964 9.068 9.634 5.025 16.305.982 24.92 2.912 28.997 9.528s2.131 15.162-4.54 19.205c-2.13 1.379-4.724 2.114-7.318 2.114zm8.153-10.2l-1.02-.46s-1.482-.643-2.408-1.102c-.093 0-.186-.092-.278-.092-.278 0-.463.092-.649.184 0 0-.092.091-1.39 1.562a.51.51 0 01-.463.275h-.092c-.093 0-.278-.091-.37-.183l-.464-.184c-1.019-.46-1.946-1.01-2.687-1.746-.185-.184-.463-.368-.648-.551-.649-.644-1.297-1.379-1.76-2.206l-.093-.184c-.093-.092-.093-.183-.185-.367 0-.184 0-.368.092-.46 0 0 .371-.46.649-.735.185-.184.278-.46.463-.643.185-.276.278-.643.185-.919-.092-.46-1.204-2.94-1.482-3.492-.185-.276-.37-.367-.648-.46h-1.02c-.185 0-.37.093-.555.093l-.093.091c-.185.092-.37.276-.556.368-.185.184-.278.368-.463.551-.649.827-1.02 1.838-1.02 2.85 0 .734.186 1.47.464 2.113l.093.275a15.312 15.312 0 003.428 4.687l.37.367c.278.276.556.46.741.735 1.946 1.655 4.17 2.85 6.67 3.492.278.092.649.092.927.184h.926c.464 0 1.02-.184 1.39-.367.278-.184.463-.184.649-.368l.185-.184c.185-.184.37-.276.556-.46.185-.183.37-.367.463-.55.185-.368.278-.828.37-1.287v-.643s-.092-.092-.277-.184z" fill="#fff"/></g><defs><clipPath id="clip0_81_23748"><path fill="#fff" transform="translate(0 .03)" d="M0 0h34v34H0z"/></clipPath></defs></svg>