<svg width="20" height="19" fill="none" xmlns="http://www.w3.org/2000/svg"><g clip-path="url(#clip0_81_23444)"><path d="M11.667 0h-7a2 2 0 00-2 2v13a2 2 0 002 2h7a2 2 0 002-2V2a2 2 0 00-2-2z" fill="#6D6D6D"/><path d="M16.667 2h-6a2 2 0 00-2 2v13a2 2 0 002 2h6a2 2 0 002-2V4a2 2 0 00-2-2z" fill="#CCC"/><path d="M13.167 4h-2a.5.5 0 00-.5.5v2a.5.5 0 00.5.5h2a.5.5 0 00.5-.5v-2a.5.5 0 00-.5-.5z" fill="#6D6D6D" stroke="#6D6D6D" stroke-linecap="round"/></g><defs><clipPath id="clip0_81_23444"><path fill="#fff" transform="translate(.667)" d="M0 0h19v19H0z"/></clipPath></defs></svg>