<svg width="28" height="18" fill="none" xmlns="http://www.w3.org/2000/svg"><path d="M26.183.259c-.91.274-1.822.503-2.733.777-.91.273-1.822.502-2.734.776-.546.136-1.002.867-1.002 1.55v3.835c0 .684.456 1.414 1.002 1.55.912.274 1.822.503 2.733.777.912.274 1.824.503 2.735.777.545.137.957-.64 1.002-1.735V2.04c0-1.05-.41-1.781-.867-1.781h-.136z" fill="#033D41"/><path d="M7.184 1.812c-.911-.274-1.822-.502-2.733-.776C3.539.762 2.628.534 1.717.26 1.17.123.714.944.714 2.131v6.39c0 1.186.456 2.007 1.003 1.824.91-.273 1.822-.502 2.734-.776.91-.274 1.822-.501 2.733-.775.547-.137 1.002-.867 1.002-1.55V3.362c0-.684-.455-1.37-1.002-1.55z" fill="#8FC584"/><path d="M15.886 1.812c.455-.274.912-.502 1.367-.776.456-.274.911-.503 1.366-.777.274-.136.502.685.502 1.827v6.389c0 1.187-.228 2.008-.502 1.826-.455-.274-.91-.503-1.366-.777-.455-.274-.912-.503-1.367-.775-.274-.138-.501-.868-.501-1.552V3.364c0-.685.227-1.37.501-1.552z" fill="#025842"/><path d="M12.012 1.812c-.455-.274-.911-.502-1.367-.776C10.19.762 9.734.533 9.28.259c-.274-.136-.502.685-.502 1.827v6.389c0 1.187.228 2.008.502 1.826.455-.274.91-.503 1.366-.777.456-.274.912-.503 1.367-.775.274-.138.502-.868.502-1.552V3.364c0-.685-.228-1.37-.502-1.552z" fill="#6BB86F"/><path d="M14.334 1.812c.047-.274.137-.502.183-.776.091-.274.136-.503.227-.777.045-.136.092.685.092 1.827v6.389c0 1.187-.047 2.008-.092 1.826-.045-.274-.136-.503-.227-.777-.046-.274-.136-.503-.183-.775-.046-.138-.091-.868-.091-1.552V3.364c0-.685.045-1.37.091-1.552z" fill="#2F7433"/><path d="M13.605 1.812c-.09-.274-.136-.502-.227-.776s-.136-.503-.228-.777c-.045-.136-.091.685-.091 1.827v6.389c0 1.187.046 2.008.091 1.826.092-.274.137-.503.228-.777s.136-.503.227-.775c.047-.138.092-.868.092-1.552V3.364c-.045-.685-.092-1.37-.092-1.552z" fill="#3C8340"/><path d="M6.681 17.237v-3.059h-.82v2.558c-.045 0-.091.045-.181.045h-.273c-.182 0-.32-.045-.411-.138a.522.522 0 01-.136-.364v-2.146h-.82v2.1c0 .274.044.503.137.685.09.181.272.319.455.41.181.092.455.137.729.137.181 0 .319 0 .501-.045.182 0 .32-.047.456-.092a.842.842 0 00.363-.091zm3.099.183v-2.236c0-.23-.046-.41-.138-.594-.09-.183-.272-.274-.455-.364a1.938 1.938 0 00-.774-.138c-.274 0-.501.045-.729.045a2.36 2.36 0 00-.592.183v3.057h.82v-2.51c.045 0 .136-.044.227-.044.092 0 .183-.045.274-.045.183 0 .318.045.41.136.09.091.137.227.137.365v2.145h.82zm1.32-4.198c0-.092 0-.138-.045-.23-.045-.044-.09-.135-.182-.135-.09-.047-.136-.047-.228-.047-.091 0-.181 0-.227.047a.591.591 0 00-.182.136c-.046.045-.046.137-.046.229 0 .09 0 .136.046.227.045.047.09.137.182.183a.405.405 0 00.227.046c.092 0 .183 0 .228-.046a.352.352 0 00.182-.183c.045-.045.045-.137.045-.227zm-.045.958h-.819v3.24h.82v-3.24zm2.096 3.193v-.684c-.045 0-.045.047-.091.047h-.136c-.092 0-.138 0-.183-.047-.045 0-.09-.045-.136-.091-.047-.046-.047-.136-.047-.228v-1.596h.593v-.594h-.593v-.958l-.819.227v.73h-.411v.595h.411v1.641c0 .32.09.594.228.777.136.181.364.274.684.274h.181c.047 0 .137 0 .183-.046.045 0 .091-.047.136-.047zm2.961-1.778c0-.229-.045-.411-.09-.594a.954.954 0 00-.274-.456 1.601 1.601 0 00-.455-.32c-.182-.092-.365-.092-.593-.092a1.45 1.45 0 00-.637.138c-.183.091-.365.182-.455.365a1.041 1.041 0 00-.274.548c-.047.227-.092.411-.092.685 0 .228.045.455.092.683.091.229.181.366.319.547.136.138.318.274.501.367.181.091.455.136.683.136.136 0 .319 0 .456-.045.136 0 .273-.046.409-.091.138-.046.228-.093.32-.138l-.227-.592c-.093.045-.183.09-.274.09-.092.046-.183.046-.32.092-.09 0-.228.045-.318.045-.138 0-.319-.045-.411-.091a.822.822 0 01-.318-.228c-.091-.092-.138-.229-.138-.411l2.096-.274v-.364zm-.774-.137l-1.367.182c0-.182.045-.365.092-.503.046-.136.136-.227.272-.318.092-.092.228-.092.365-.092.137 0 .228.047.318.092a.539.539 0 01.229.228c.045.09.091.228.091.41zm1.96-2.739h-.822v4.7h.822v-4.7zm1.32 0h-.82v4.7h.82v-4.7zm3.19 2.876c0-.229-.046-.411-.091-.594a.944.944 0 00-.274-.456 1.582 1.582 0 00-.455-.32c-.183-.092-.364-.092-.592-.092-.229 0-.456.047-.639.138-.182.091-.364.182-.455.365a1.041 1.041 0 00-.274.548c-.045.137-.09.365-.09.639 0 .227.045.456.09.684.091.229.183.365.319.547.138.138.319.274.501.366.183.09.456.137.683.137.138 0 .319 0 .457-.046.136 0 .272-.045.41-.091.136-.047.227-.092.319-.137l-.23-.594a.63.63 0 01-.272.092c-.091.045-.182.045-.319.09-.091 0-.227.047-.319.047-.136 0-.318-.046-.41-.092-.136-.045-.227-.137-.319-.228-.09-.091-.136-.228-.136-.41l2.096-.274v-.319zm-.775-.137l-1.367.182c0-.182.046-.365.091-.503.045-.136.138-.227.274-.318.09-.092.228-.092.365-.092.135 0 .226.047.318.092a.536.536 0 01.227.228c.047.09.092.228.092.41zm2.824-1.325h-.41c-.272 0-.501.047-.729.047a2.281 2.281 0 00-.591.182v3.058h.819v-2.601c.046 0 .137-.045.182-.045h.41c.047 0 .137 0 .182.045l.137-.686z" fill="#4A4A49"/></svg>