<svg width="20" height="19" fill="none" xmlns="http://www.w3.org/2000/svg"><g clip-path="url(#clip0_81_23455)"><path d="M.333 9.5a9.5 9.5 0 1019 0 9.5 9.5 0 00-19 0z" fill="#3EC835" fill-opacity=".35"/><path d="M9.833 8.959a9.692 9.692 0 01-1.49 5.179m-1.861-1.104l.03-.049A7.522 7.522 0 007.668 8.96a2.164 2.164 0 114.329 0c-.001.55-.038 1.092-.11 1.623m-1.146 3.704c.333-.667.603-1.363.807-2.08m2.077.612c.35-1.226.536-2.521.536-3.86a4.33 4.33 0 00-6.493-3.75M4.963 11.32a5.396 5.396 0 00.541-2.361c0-.789.211-1.528.579-2.165" stroke="#3EC835" stroke-width="1.082" stroke-linecap="round" stroke-linejoin="round"/></g><defs><clipPath id="clip0_81_23455"><path fill="#fff" transform="translate(.333)" d="M0 0h19v19H0z"/></clipPath></defs></svg>