<svg width="34" height="35" fill="none" xmlns="http://www.w3.org/2000/svg"><path d="M17.283 31.138c7.668 0 13.884-6.216 13.884-13.883 0-7.668-6.216-13.884-13.884-13.884C9.616 3.371 3.4 9.587 3.4 17.255c0 7.667 6.216 13.883 13.883 13.883z" fill="url(#paint0_linear_81_23751)"/><path fill-rule="evenodd" clip-rule="evenodd" d="M9.684 17.108c4.048-1.763 6.746-2.926 8.097-3.487 3.855-1.604 4.657-1.883 5.179-1.892.115-.002.371.027.538.162.14.114.179.268.197.376.019.108.042.354.023.546-.208 2.196-1.112 7.523-1.572 9.982-.195 1.04-.578 1.389-.95 1.423-.805.074-1.418-.533-2.199-1.045-1.221-.8-1.912-1.3-3.098-2.08-1.37-.904-.482-1.4.3-2.212.204-.212 3.756-3.443 3.825-3.736.008-.037.016-.174-.065-.246-.081-.072-.2-.047-.287-.028-.123.028-2.075 1.318-5.856 3.87-.555.381-1.056.567-1.506.557-.496-.01-1.45-.28-2.158-.51-.87-.283-1.56-.433-1.5-.913.03-.25.375-.505 1.032-.767z" fill="#fff"/><defs><linearGradient id="paint0_linear_81_23751" x1="17.283" y1="3.371" x2="17.283" y2="30.932" gradientUnits="userSpaceOnUse"><stop stop-color="#2AABEE"/><stop offset="1" stop-color="#229ED9"/></linearGradient></defs></svg>