<svg width="19" height="19" fill="none" xmlns="http://www.w3.org/2000/svg"><path d="M13.052.247H2.575a2 2 0 00-2 2v5.566c0 .932.755 1.687 1.687 1.687.931 0 1.686.755 1.686 1.687v5.566a2 2 0 002 2h9a2 2 0 002-2v-6.305A.948.948 0 0016 9.5a.948.948 0 01-.948-.948V2.247a2 2 0 00-2-2z" fill="#6D6D6D" fill-opacity=".35"/><path d="M15.161 15.352a1.43 1.43 0 01-1.427 1.431 1.43 1.43 0 010-2.863 1.43 1.43 0 011.427 1.432zM5.503 3.764a1.43 1.43 0 01-1.427 1.431 1.43 1.43 0 010-2.862 1.43 1.43 0 011.427 1.431z" fill="#6D6D6D" stroke="#6D6D6D" stroke-linecap="round"/></svg>