<svg width="25" height="21" fill="none" xmlns="http://www.w3.org/2000/svg"><path d="M15.547 1.92H9.036v12.042h6.51V1.92z" fill="#FF5F00"/><path d="M9.452 7.94a7.767 7.767 0 012.834-6.023A7.276 7.276 0 007.695.281C3.582.28.253 3.703.253 7.94c0 4.234 3.327 7.659 7.442 7.659a7.27 7.27 0 004.59-1.64 7.736 7.736 0 01-2.833-6.02z" fill="#EB001B"/><path d="M24.335 7.94c0 4.234-3.326 7.659-7.442 7.659a7.268 7.268 0 01-4.59-1.64 7.702 7.702 0 002.832-6.02 7.763 7.763 0 00-2.83-6.022A7.266 7.266 0 0116.893.281c4.116 0 7.442 3.447 7.442 7.659z" fill="#F79E1B"/><path d="M3.766 20.487l-.002-1.278c.002-.486-.319-.805-.871-.805-.274 0-.575.084-.782.361-.16-.234-.387-.361-.733-.361a.767.767 0 00-.643.296v-.255H.253v2.042h.482V19.36c0-.362.207-.53.527-.53.322 0 .484.19.484.53l-.002 1.126h.484l-.001-1.126c0-.362.23-.53.53-.53.32 0 .483.19.483.53v1.126h.526zm7.14-2.042h-.781v-.614h-.482v.617h-.434v.405h.434v.934c0 .468.208.746.76.746.204 0 .433-.065.595-.149L10.86 20a.78.78 0 01-.411.106c-.232 0-.324-.126-.324-.338v-.915h.781v-.408zm4.086-.041a.665.665 0 00-.574.297v-.255h-.482v2.04h.482V19.34c0-.34.162-.531.459-.531.1.004.202.017.3.041l.138-.427c-.091-.019-.231-.019-.323-.019zm-6.176.212a1.683 1.683 0 00-.894-.212c-.553 0-.919.255-.919.66 0 .339.275.53.757.594l.23.024c.252.041.39.104.39.21 0 .15-.184.255-.507.255a1.334 1.334 0 01-.732-.212l-.23.34c.282.175.609.263.94.256.645 0 1.012-.277 1.012-.657 0-.363-.298-.556-.758-.618l-.229-.024c-.208-.02-.369-.063-.369-.192 0-.146.16-.232.415-.232.274 0 .55.105.69.168l.204-.36zm12.813-.212a.66.66 0 00-.573.297v-.256h-.482v2.042h.482V19.34c0-.34.158-.531.458-.531.1.003.2.018.298.041l.137-.427c-.09-.019-.228-.019-.32-.019zm-6.154 1.06c0 .62.457 1.067 1.17 1.067.322 0 .554-.065.781-.234l-.227-.362a.988.988 0 01-.574.193c-.39 0-.668-.258-.668-.66 0-.384.277-.64.668-.66.205 0 .387.064.574.193l.227-.363c-.227-.168-.457-.234-.78-.234-.711 0-1.171.446-1.171 1.06zm4.455 1.023v-2.042h-.483v.256a.858.858 0 00-.69-.297c-.618 0-1.1.446-1.1 1.06 0 .62.482 1.067 1.1 1.067.324 0 .553-.107.69-.3v.256h.483zm-1.767-1.02c0-.362.25-.66.665-.66h.025a.64.64 0 01.64.637v.031c0 .356-.294.65-.651.65h-.014c-.414-.019-.665-.296-.665-.658zm-5.761-1.063c-.647 0-1.105.424-1.105 1.06 0 .641.458 1.067 1.125 1.067.32.007.635-.09.895-.278l-.229-.318a1.161 1.161 0 01-.644.212c-.298 0-.598-.127-.665-.49h1.63v-.168c.024-.66-.39-1.085-1.011-1.085h.004zm0 .382c.295 0 .502.17.549.49H11.8a.573.573 0 01.598-.49h.004zm11.958 1.7v-2.848h-.482V18.7a.858.858 0 00-.69-.297c-.619 0-1.101.446-1.101 1.06 0 .62.482 1.067 1.102 1.067.323 0 .553-.106.689-.299v.255h.482zm-1.766-1.019c0-.361.25-.66.666-.66h.025c.351 0 .64.287.64.638v.03c0 .356-.295.65-.651.65h-.014c-.416-.021-.666-.296-.666-.658zm-16.118 1.02v-2.042h-.482v.256a.862.862 0 00-.69-.297c-.62 0-1.103.446-1.103 1.06 0 .62.483 1.067 1.104 1.067.322 0 .551-.106.689-.299v.255h.482zm-1.792-1.02a.64.64 0 01.666-.66h.027a.64.64 0 01.637.638v.03c0 .356-.293.65-.65.65H5.35c-.412-.021-.666-.296-.666-.658z" fill="#000"/></svg>