<svg width="168" height="79" fill="none" xmlns="http://www.w3.org/2000/svg"><path d="M113.669 19.126l-.873-.124c-1.911-.083-3.782-.79-5.112-2.162l-.041-.041a7.299 7.299 0 01-2.12-5.155c0-9.85-11.595-15.296-19.076-8.853-.79.706-1.58 1.455-2.41 2.244-3.7 3.7-8.936 8.937-15.295 11.182a5.846 5.846 0 01-6.068-1.372c-1.163-1.164-1.87-2.743-1.828-4.406 0-.416 0-.873-.125-1.33-.457-2.162-2.244-3.866-4.406-4.198a5.394 5.394 0 00-6.15 6.152c.332 2.16 2.036 3.948 4.197 4.405l.873.125c1.912.083 3.782.79 5.153 2.162l.042.041a7.365 7.365 0 012.161 5.196c0 9.851 11.596 15.296 19.077 8.854.79-.707 1.579-1.455 2.41-2.245 3.699-3.7 8.894-8.895 15.253-11.181a5.845 5.845 0 016.067 1.371c1.164 1.164 1.871 2.744 1.829 4.365 0 .416 0 .873.125 1.33.457 2.162 2.244 3.866 4.405 4.198a5.393 5.393 0 006.151-6.152c-.415-2.203-2.119-3.99-4.239-4.406z" fill="#76B82A"/><path d="M96.047 59.986v18.372h5.278V61.191a2.324 2.324 0 012.328-2.327h9.85v-5.28h-11.097c-3.533.042-6.359 2.869-6.359 6.402zM83.08 53.627H69.573v5.278H83.08c.624 0 1.081.5 1.081 1.081v3.076h-9.56c-3.823 0-6.94 3.118-6.94 6.942v1.454c0 3.825 3.117 6.942 6.94 6.942H89.44V59.986a6.36 6.36 0 00-6.359-6.36zm1.04 19.494h-9.477a1.667 1.667 0 01-1.662-1.663v-1.454c0-.915.748-1.663 1.663-1.663h9.475v4.78zM54.736 53.045h-6.359c-1.538 0-2.91.54-4.031 1.413-1.122-.873-2.494-1.413-4.032-1.413h-6.358a6.643 6.643 0 00-6.65 6.65V78.36h5.278V59.57a1.25 1.25 0 011.247-1.247h6.65a1.25 1.25 0 011.246 1.247v18.788h5.279V59.57a1.25 1.25 0 011.246-1.247h6.65a1.25 1.25 0 011.247 1.247v18.788h5.278V59.695c-.041-3.657-2.992-6.65-6.691-6.65zm-39.94 10.308H7.232c-1.081 0-1.954-.998-1.954-2.245s.873-2.244 1.954-2.244h13.216v-5.28H7.232C3.242 53.585 0 56.953 0 61.109c0 4.157 3.242 7.524 7.232 7.524h7.564c1.08 0 1.953.997 1.953 2.244 0 1.247-.873 2.245-1.953 2.245H.748V78.4h14.048c3.99 0 7.231-3.367 7.231-7.524 0-4.156-3.242-7.523-7.231-7.523zm139.354 9.145l12.967-13.343c.54-.582.956-1.704.872-2.494-.124-2.037-1.496-3.035-3.408-3.035h-17.704v5.28h12.343c.291 0 .457.373.249.581L146.502 72.83c-.54.582-.872 1.663-.831 2.494.125 1.788 1.413 3.076 3.325 3.076h18.453v-5.279h-13.092c-.249-.041-.415-.416-.207-.623zm-35.119-18.871v5.237h8.686v19.495h5.278V58.864h8.645v-5.237h-22.609z" fill="#000"/></svg>