<svg width="89" height="16" fill="none" xmlns="http://www.w3.org/2000/svg"><path d="M0 4.196h1.086v2.839c.339-.611.938-.939 1.797-.939 1.674 0 2.477 1.447 2.477 3.132s-.803 3.133-2.477 3.133c-.904 0-1.526-.374-1.854-.996l-.034.86H0V4.196zm.984 5.032c0 1.097.486 2.126 1.617 2.126 1.153 0 1.628-1.006 1.628-2.126 0-1.153-.475-2.17-1.628-2.17-1.131 0-1.617 1.04-1.617 2.17zm4.818-2.996h1.154l1.719 4.772 1.65-4.772h1.154L9.07 12.926c-.237.678-.7.995-1.436.995h-.78v-.938h.645c.316 0 .497-.125.61-.43l.204-.51h-.34l-2.17-5.811z" fill="#161616"/><path d="M14.594 4.023h2.077V5.11h.03c.29-.414.636-.735 1.039-.963a2.873 2.873 0 011.41-.341c.507 0 .966.098 1.38.295.423.196.743.543.96 1.04a3.45 3.45 0 01.961-.932c.414-.269.9-.403 1.457-.403.424 0 .816.051 1.178.155.362.103.672.27.93.497.258.228.46.528.604.9.145.363.217.803.217 1.32v5.375h-2.2V7.502c0-.27-.01-.523-.032-.761a1.616 1.616 0 00-.17-.621 1.02 1.02 0 00-.418-.42c-.176-.103-.419-.155-.729-.155s-.563.062-.76.186c-.185.114-.335.27-.449.466a2.02 2.02 0 00-.217.653 5.65 5.65 0 00-.046.73v4.473h-2.2V7.549c0-.239-.006-.471-.016-.7a1.885 1.885 0 00-.14-.652.898.898 0 00-.387-.466c-.176-.124-.44-.186-.79-.186-.104 0-.243.026-.419.078a1.29 1.29 0 00-.496.264c-.155.124-.29.31-.403.559-.113.238-.17.554-.17.947v4.66h-2.201v-8.03zm15.161 4.023c0 .32.03.636.093.947.062.3.165.575.31.823.154.238.356.43.604.575.248.145.558.217.93.217s.682-.072.93-.217c.258-.145.46-.337.604-.575.155-.248.264-.523.326-.823a4.828 4.828 0 000-1.895 2.328 2.328 0 00-.326-.823 1.616 1.616 0 00-.604-.575c-.248-.155-.558-.233-.93-.233s-.682.078-.93.233c-.248.145-.45.337-.604.575a2.522 2.522 0 00-.31.823 4.83 4.83 0 00-.093.948zm-2.201 0c0-.642.098-1.222.294-1.74a3.672 3.672 0 012.14-2.19 4.466 4.466 0 011.704-.31c.63 0 1.198.103 1.705.31.516.197.955.482 1.317.854.361.363.64.808.837 1.336.196.518.294 1.098.294 1.74a4.89 4.89 0 01-.294 1.74 3.855 3.855 0 01-.837 1.335c-.362.362-.8.642-1.317.838a4.675 4.675 0 01-1.705.296 4.67 4.67 0 01-1.705-.296 3.712 3.712 0 01-1.302-.838 3.855 3.855 0 01-.837-1.336 4.875 4.875 0 01-.294-1.74zm10.652 1.397c0 .239.046.446.14.622.103.165.232.305.387.419.155.104.33.181.527.233a2.604 2.604 0 001.116.031c.175-.041.33-.098.465-.17.144-.084.263-.187.356-.311.093-.135.14-.3.14-.497 0-.332-.223-.58-.667-.746-.434-.166-1.043-.331-1.829-.497-.32-.072-.635-.155-.945-.248a3.64 3.64 0 01-.806-.389 1.999 1.999 0 01-.573-.605c-.145-.249-.217-.55-.217-.901 0-.518.098-.942.294-1.274.207-.331.475-.59.806-.776.33-.197.703-.332 1.116-.404a6.451 6.451 0 012.526 0c.413.083.78.222 1.1.42.32.196.584.46.79.791.218.321.347.73.388 1.227h-2.092c-.031-.424-.191-.709-.48-.854a2.137 2.137 0 00-1.023-.233c-.124 0-.259.01-.403.031-.145.01-.28.042-.403.093a.797.797 0 00-.295.233.57.57 0 00-.124.389c0 .196.073.357.217.481.145.124.331.228.558.31.238.073.507.14.806.203.3.062.605.129.915.201.32.073.63.16.93.264.31.104.583.244.82.42.238.166.43.378.574.637.145.248.217.559.217.931 0 .529-.108.974-.325 1.336a2.49 2.49 0 01-.822.854 3.288 3.288 0 01-1.178.45 6.57 6.57 0 01-2.696 0 3.685 3.685 0 01-1.193-.465 2.8 2.8 0 01-.853-.854c-.217-.363-.336-.813-.356-1.352h2.092zM49.505 6.85c-.144-.922-.687-1.383-1.627-1.383-.351 0-.645.083-.883.249a1.884 1.884 0 00-.589.621 2.706 2.706 0 00-.31.839 4.37 4.37 0 000 1.786 3 3 0 00.294.823c.145.238.336.435.574.59.238.156.527.233.868.233.527 0 .93-.145 1.209-.435.289-.3.47-.699.542-1.196h2.123c-.145 1.067-.558 1.88-1.24 2.439-.681.559-1.555.839-2.619.839a4.54 4.54 0 01-1.658-.296 3.768 3.768 0 01-1.27-.854 3.873 3.873 0 01-.822-1.289 4.567 4.567 0 01-.295-1.662c0-.62.088-1.196.264-1.724a3.9 3.9 0 01.806-1.382c.351-.393.78-.699 1.286-.916.506-.218 1.085-.326 1.736-.326.475 0 .93.062 1.364.186.444.124.836.316 1.177.575.352.248.636.564.853.947.217.373.34.818.372 1.336h-2.154zm4.622 1.196c0 .32.031.636.093.947.062.3.166.575.31.823.155.238.357.43.605.575.248.145.558.217.93.217.371 0 .681-.072.93-.217.258-.145.459-.337.604-.575a2.49 2.49 0 00.325-.823 4.828 4.828 0 000-1.895 2.326 2.326 0 00-.325-.823 1.617 1.617 0 00-.605-.575c-.248-.155-.558-.233-.93-.233-.371 0-.681.078-.93.233a1.797 1.797 0 00-.604.575 2.522 2.522 0 00-.31.823 4.83 4.83 0 00-.093.948zm-2.2 0c0-.642.098-1.222.294-1.74a3.672 3.672 0 012.139-2.19 4.466 4.466 0 011.704-.31c.63 0 1.199.103 1.705.31a3.6 3.6 0 011.318.854c.361.363.64.808.836 1.336.197.518.295 1.098.295 1.74 0 .642-.098 1.221-.295 1.74a3.857 3.857 0 01-.837 1.335 3.67 3.67 0 01-1.317.838 4.675 4.675 0 01-1.705.296c-.63 0-1.198-.099-1.704-.296a3.712 3.712 0 01-1.302-.838 3.855 3.855 0 01-.837-1.336 4.875 4.875 0 01-.294-1.74zm18.106 4.007H67.77l-1.425-5.39h-.031l-1.364 5.39h-2.28l-2.541-8.03h2.325l1.472 5.451h.03l1.334-5.451h2.138l1.364 5.436h.031l1.472-5.436h2.263l-2.526 8.03zm8.081-4.877c-.103-.56-.289-.984-.558-1.274-.258-.29-.656-.435-1.193-.435-.351 0-.646.063-.883.187a1.69 1.69 0 00-.558.435 1.821 1.821 0 00-.295.559 2.847 2.847 0 00-.093.528h3.58zm-3.58 1.398c.031.714.212 1.232.543 1.553.33.32.806.481 1.425.481.445 0 .827-.108 1.147-.326.32-.228.517-.466.59-.714h1.936c-.31.963-.785 1.651-1.425 2.065-.64.415-1.416.622-2.325.622-.63 0-1.198-.099-1.705-.296a3.627 3.627 0 01-1.286-.87 3.977 3.977 0 01-.821-1.335 5.02 5.02 0 01-.28-1.708c0-.6.099-1.16.295-1.678.196-.517.475-.963.837-1.335.362-.384.79-.684 1.286-.901a4.197 4.197 0 011.674-.326c.682 0 1.276.134 1.782.403.507.26.92.611 1.24 1.057a4.3 4.3 0 01.713 1.522c.145.57.196 1.164.155 1.786h-5.78zm12.185-.528a4.27 4.27 0 00-.109-.979 2.56 2.56 0 00-.34-.823 1.69 1.69 0 00-.59-.56c-.227-.144-.506-.217-.836-.217-.32 0-.6.073-.837.218a1.69 1.69 0 00-.59.559 2.56 2.56 0 00-.34.823 4.32 4.32 0 00-.108.979c0 .331.036.652.108.963.072.31.186.585.34.823.156.238.352.43.59.574.237.135.516.202.837.202.33 0 .61-.067.837-.202a1.83 1.83 0 00.588-.574 2.56 2.56 0 00.341-.823 4.2 4.2 0 00.109-.963zM80.845.963h2.2v4.038h.032a2.31 2.31 0 011.085-.9 3.663 3.663 0 011.441-.295c.403 0 .8.082 1.193.248.393.166.744.42 1.054.761.32.342.579.782.775 1.32.196.528.295 1.16.295 1.895 0 .735-.099 1.372-.295 1.91-.196.529-.454.963-.775 1.305a3.035 3.035 0 01-2.247 1.01 4.219 4.219 0 01-1.58-.28 2.008 2.008 0 01-1.054-.947h-.031v1.025h-2.093V.963z" fill="#111"/></svg>