<svg width="44" height="38" fill="none" xmlns="http://www.w3.org/2000/svg"><path stroke="#E0BC54" stroke-width="1.37" d="M.888 1.556h42.224v25.876H.888z"/><path d="M2.98 3.896h6.883c5.853 0 10.598 4.745 10.598 10.598 0 5.853-4.745 10.598-10.598 10.598H2.98V3.896zm20.311 0h6.883c5.853 0 10.598 4.745 10.598 10.598 0 5.853-4.745 10.598-10.598 10.598H23.29V3.896z" stroke="#E0BC54" stroke-width="1.096"/><path d="M4.714 5.382h5.15a9.112 9.112 0 110 18.224h-5.15V5.382zm20.311 0h5.149a9.112 9.112 0 110 18.224h-5.149V5.382z" stroke="#E0BC54" stroke-width="1.096"/><path d="M7.205 8.368h2.906a6.126 6.126 0 110 12.252H7.205V8.368zm20.311 0h2.906a6.126 6.126 0 010 12.252h-2.906V8.368z" stroke="#E0BC54" stroke-width=".628"/><path d="M8.196 9.359h1.915a5.135 5.135 0 110 10.27H8.196V9.359zm20.31 0h1.916a5.135 5.135 0 110 10.27h-1.916V9.359z" stroke="#E0BC54" stroke-width=".628"/><path fill-rule="evenodd" clip-rule="evenodd" d="M1.69 30.098h5.944L5.9 31.708h2.353l-.62 1.61H6.52v-.743H5.9l-.62 1.858h2.85v.99H6.147l2.229 1.115-.867.991-2.23-1.61v1.61H4.167v-1.61L1.69 37.53l-.99-.99 2.353-1.115H.946v-.991H3.92l.743-1.858-2.601 1.61-1.115-.743 2.106-.867H1.194v-.867h2.6l-.742-.743H1.689v-.867zm3.095 1.363l-.619-.62H5.53l-.744.62zm4.583 2.477l.495-2.477h.62v-1.61h1.114v1.733h.62l.247.62.62-1.61.866.247-.248.991h.62v-1.981h.99v1.981h1.61v.991h-1.61v1.115h1.239v.866h-1.239v1.487h1.734v1.114H12.34v-1.114h1.982v-1.486h-1.487v-.62l-.99-.619.247-.495-.495-.248v4.582h-1.115v-4.334l-.247 1.114-.867-.247zm3.591 0l.62-1.115h.619v1.115h-1.239z" fill="#000"/><path d="M24.99 33.78c0 .503-.063.96-.19 1.373a2.848 2.848 0 01-.564 1.054 2.37 2.37 0 01-.963.681c-.387.158-.845.237-1.372.237-.527 0-.987-.08-1.381-.237a2.599 2.599 0 01-.963-.681 3.026 3.026 0 01-.564-1.063 4.855 4.855 0 01-.181-1.372c0-.673.109-1.257.327-1.754a2.52 2.52 0 011.017-1.154c.46-.279 1.045-.418 1.754-.418.703 0 1.282.14 1.736.418.454.272.79.66 1.008 1.163.225.497.337 1.081.337 1.754zm-4.734 0c0 .455.058.846.173 1.173.115.327.294.578.536.754.242.176.555.264.936.264.394 0 .709-.088.945-.264.242-.176.418-.427.527-.754.115-.327.173-.718.173-1.172 0-.685-.127-1.221-.382-1.609-.254-.387-.672-.581-1.254-.581-.387 0-.703.088-.945.263a1.524 1.524 0 00-.536.755c-.115.327-.173.717-.173 1.172zm6.442 3.254v-6.488h1.372v5.352h2.635v1.136h-4.007zm9.236 0H32.2v-6.488h3.734v1.127h-2.362v1.426h2.199v1.127h-2.2v1.672h2.363v1.136zm7.093-3.308c0 .727-.14 1.336-.418 1.827-.279.49-.684.86-1.218 1.108-.526.249-1.163.373-1.908.373h-1.835v-6.488h2.035c.679 0 1.266.12 1.763.363.503.242.89.6 1.163 1.073.279.466.418 1.047.418 1.744zm-1.427.037c0-.48-.07-.873-.209-1.182a1.38 1.38 0 00-.627-.681c-.272-.152-.608-.227-1.008-.227h-.736v4.225h.59c.673 0 1.173-.179 1.5-.536.327-.358.49-.89.49-1.6z" fill="#000"/></svg>