<?xml version="1.0" encoding="utf-8"?><svg viewBox="0 0 62 63" xmlns="http://www.w3.org/2000/svg" xmlns:xlink="http://www.w3.org/1999/xlink"><style>:root>svg{display:none}:root>svg:target{display:block}</style><svg fill="none" viewBox="0 0 4 5" id="icon-arrow-breadcrumb" xmlns="http://www.w3.org/2000/svg"><path opacity=".4" d="M.781 1.108a.29.29 0 01.447-.246l2.2 1.392a.29.29 0 010 .492l-2.2 1.391a.29.29 0 01-.447-.245V1.108z" fill="#000"/></svg><svg fill="none" viewBox="0 0 11 12" id="icon-arrow-more" xmlns="http://www.w3.org/2000/svg"><path d="M3.125 11.563l5.456-5.456L3.125.65" stroke="currentColor"/></svg><svg fill="none" viewBox="0 0 24 25" id="icon-basket" xmlns="http://www.w3.org/2000/svg"><path d="M1 1.5h2.5a1 1 0 011 1V5m0 0v11a1 1 0 001 1h13.72a1 1 0 00.97-.758l2.5-10A1 1 0 0021.72 5H4.5z" stroke="currentColor" stroke-width="2" stroke-linecap="round"/><circle cx="7" cy="21.5" r="2" stroke="currentColor" stroke-width="2"/><circle cx="16" cy="21.5" r="2" stroke="currentColor" stroke-width="2"/></svg><svg fill="none" viewBox="0 0 20 11" id="icon-caret" xmlns="http://www.w3.org/2000/svg"><path d="M2.114 1.305l7.779 7.778 7.778-7.778" stroke="currentColor" stroke-width="2"/></svg><svg fill="none" viewBox="0 0 20 11" id="icon-caret-select" xmlns="http://www.w3.org/2000/svg"><path d="M2.114 1.305l7.779 7.778 7.778-7.778" stroke="#484848" stroke-width="2"/></svg><svg fill="none" viewBox="0 0 24 25" id="icon-catalog" xmlns="http://www.w3.org/2000/svg"><path d="M2 21.5h13M2 12.5h20m-20-9h20" stroke="currentColor" stroke-width="2" stroke-linecap="round"/></svg><svg fill="none" viewBox="0 0 24 24" id="icon-chat" xmlns="http://www.w3.org/2000/svg"><path d="M16.614 3.692H8.307A4.615 4.615 0 003.69 8.308V19.54c0 .709.8 1.122 1.379.712a12.682 12.682 0 017.345-2.344h4.31a4.505 4.505 0 004.505-4.506V8.308a4.615 4.615 0 00-4.616-4.616z" stroke="currentColor" stroke-width="2" stroke-linecap="round"/></svg><svg fill="none" viewBox="0 0 14 11" id="icon-check" xmlns="http://www.w3.org/2000/svg"><path d="M1.682 5.268A1 1 0 10.318 6.732l1.364-1.464zm3.374 4.51l-.682.731a1 1 0 001.423-.06l-.741-.671zM13.74 1.67A1 1 0 0012.26.329l1.482 1.342zM.318 6.731l4.056 3.778 1.363-1.463-4.055-3.778L.318 6.732zm5.479 3.718l7.944-8.778L12.26.329 4.314 9.107l1.483 1.342z" fill="#484848"/></svg><svg fill="none" viewBox="0 0 24 24" id="icon-close" xmlns="http://www.w3.org/2000/svg"><path d="M3 3l18 18M3 21L21 3" stroke="currentColor" stroke-width="2" stroke-linecap="round"/></svg><svg fill="none" viewBox="0 0 15 16" id="icon-copy" xmlns="http://www.w3.org/2000/svg"><path d="M10 2.375H2.5V10.5" stroke="currentColor" stroke-width="1.563" stroke-linecap="round" stroke-linejoin="round"/><path d="M5 4.875h7.5v7.5a1.25 1.25 0 01-1.25 1.25h-5A1.25 1.25 0 015 12.375v-7.5z" stroke="currentColor" stroke-width="1.563" stroke-linecap="round" stroke-linejoin="round"/></svg><svg fill="none" viewBox="0 0 13 9" id="icon-done" xmlns="http://www.w3.org/2000/svg"><path d="M.999 3.955L4.534 7.49a1 1 0 001.414 0l5.888-5.888" stroke="#76B82A" stroke-width="2" stroke-linecap="round"/></svg><svg fill="none" viewBox="0 0 16 17" id="icon-email" xmlns="http://www.w3.org/2000/svg"><path d="M15 4.53a2 2 0 00-2-2H3a2 2 0 00-2 2v7a2 2 0 002 2h10a2 2 0 002-2v-7zm-1.762-.298l-4.93 3.836a.336.336 0 01-.414 0L2.962 4.232a.112.112 0 01.07-.201h10.137a.113.113 0 01.069.201z" fill="currentColor"/></svg><svg fill="none" viewBox="0 0 24 24" id="icon-error" xmlns="http://www.w3.org/2000/svg"><path d="M3 3l18 18M3 21L21 3" stroke="#E70012" stroke-width="3" stroke-linecap="round"/></svg><svg fill="none" viewBox="0 0 17 17" id="icon-exit" xmlns="http://www.w3.org/2000/svg"><path d="M10.838 14.875a.638.638 0 000-1.275H5.526a1.7 1.7 0 01-1.7-1.7V5.1a1.7 1.7 0 011.7-1.7h5.312a.638.638 0 000-1.275H5.526A2.975 2.975 0 002.55 5.1v6.8a2.975 2.975 0 002.975 2.975h5.312zm.843-9.606a.637.637 0 01.9.036l2.55 2.762a.637.637 0 010 .866l-2.55 2.762a.638.638 0 01-.935-.866l1.562-1.692h-6.62a.637.637 0 110-1.275h6.62l-1.563-1.693a.637.637 0 01.036-.9z" fill="currentColor"/></svg><svg fill="none" viewBox="0 0 24 25" id="icon-favorites" xmlns="http://www.w3.org/2000/svg"><path d="M11.049 3.427c.3-.921 1.603-.921 1.902 0l1.743 5.365a1 1 0 00.951.69h5.641c.969 0 1.372 1.24.588 1.81l-4.564 3.315a1 1 0 00-.363 1.118l1.743 5.365c.3.922-.755 1.688-1.539 1.118l-4.563-3.315a1 1 0 00-1.176 0L6.85 22.208c-.784.57-1.838-.196-1.54-1.118l1.744-5.365a1 1 0 00-.363-1.118l-4.564-3.315c-.784-.57-.38-1.81.588-1.81h5.64a1 1 0 00.952-.69l1.743-5.365z" stroke="currentColor" stroke-width="2"/></svg><svg fill="none" viewBox="0 0 24 24" id="icon-favorites-fill" xmlns="http://www.w3.org/2000/svg"><path d="M11.049 2.927c.3-.921 1.603-.921 1.902 0l1.743 5.365a1 1 0 00.951.69h5.641c.969 0 1.372 1.24.588 1.81l-4.564 3.315a1 1 0 00-.363 1.118l1.743 5.365c.3.922-.755 1.688-1.539 1.118l-4.563-3.315a1 1 0 00-1.176 0L6.85 21.708c-.784.57-1.838-.196-1.54-1.118l1.744-5.365a1 1 0 00-.363-1.118l-4.564-3.315c-.784-.57-.38-1.81.588-1.81h5.64a1 1 0 00.952-.69l1.743-5.365z" fill="currentColor" stroke="currentColor" stroke-width="2"/></svg><svg fill="none" viewBox="0 0 25 25" id="icon-filter" xmlns="http://www.w3.org/2000/svg"><path d="M19.9 8.75c1.048-1.31.116-3.25-1.561-3.25H6.66c-1.677 0-2.61 1.94-1.561 3.25l4.962 6.202a2 2 0 01.438 1.25v2.47a2 2 0 00.586 1.414c1.26 1.26 3.414.367 3.414-1.414v-2.47a2 2 0 01.438-1.25l4.963-6.203z" fill="currentColor"/></svg><svg fill="none" viewBox="0 0 24 24" id="icon-grid-lines" xmlns="http://www.w3.org/2000/svg"><rect x="3" y="3" width="18" height="4" rx="2" fill="currentColor"/><rect x="3" y="10" width="18" height="4" rx="2" fill="currentColor"/><rect x="3" y="17" width="18" height="4" rx="2" fill="currentColor"/></svg><svg fill="none" viewBox="0 0 24 24" id="icon-grid-rows" xmlns="http://www.w3.org/2000/svg"><rect x="3" y="3" width="18" height="2" rx="1" fill="currentColor"/><rect x="3" y="7" width="18" height="2" rx="1" fill="currentColor"/><rect x="3" y="11" width="18" height="2" rx="1" fill="currentColor"/><rect x="3" y="15" width="18" height="2" rx="1" fill="currentColor"/><rect x="3" y="19" width="18" height="2" rx="1" fill="currentColor"/></svg><svg fill="none" viewBox="0 0 24 24" id="icon-grid-table" xmlns="http://www.w3.org/2000/svg"><path d="M4 5a1 1 0 102 0 1 1 0 00-2 0zm7 0a1 1 0 102 0 1 1 0 00-2 0zm7 0a1 1 0 102 0 1 1 0 00-2 0zM4 12a1 1 0 102 0 1 1 0 00-2 0zm7 0a1 1 0 102 0 1 1 0 00-2 0zm7 0a1 1 0 102 0 1 1 0 00-2 0zM4 19a1 1 0 102 0 1 1 0 00-2 0zm7 0a1 1 0 102 0 1 1 0 00-2 0zm7 0a1 1 0 102 0 1 1 0 00-2 0z" stroke="currentColor" stroke-width="2" stroke-linecap="round" stroke-linejoin="round"/></svg><svg fill="none" viewBox="0 0 20 20" id="icon-info" xmlns="http://www.w3.org/2000/svg"><path d="M9.167 14.167h1.667v-5H9.167v5zM10 7.5c.236 0 .434-.08.595-.24.16-.16.24-.358.239-.593a.81.81 0 00-.24-.594.804.804 0 00-.594-.24.804.804 0 00-.593.24.81.81 0 00-.24.594c0 .235.08.433.24.594A.8.8 0 0010 7.5zm0 10.833a8.11 8.11 0 01-3.25-.656 8.43 8.43 0 01-2.646-1.781 8.398 8.398 0 01-1.78-2.646A8.133 8.133 0 011.667 10c0-1.152.218-2.236.657-3.25a8.434 8.434 0 011.78-2.646 8.403 8.403 0 012.646-1.78A8.118 8.118 0 0110 1.666c1.152 0 2.235.219 3.25.656a8.403 8.403 0 012.646 1.781 8.446 8.446 0 011.782 2.646 8.067 8.067 0 01.656 3.25 8.172 8.172 0 01-.657 3.25 8.36 8.36 0 01-1.78 2.646 8.467 8.467 0 01-2.647 1.781 8.074 8.074 0 01-3.25.656zm0-1.666c1.861 0 3.438-.646 4.73-1.938 1.291-1.291 1.937-2.868 1.937-4.729 0-1.861-.646-3.438-1.938-4.73C13.438 3.98 11.861 3.334 10 3.334c-1.86 0-3.437.646-4.729 1.938C3.98 6.562 3.334 8.139 3.334 10c0 1.861.645 3.438 1.937 4.73 1.292 1.29 2.868 1.937 4.73 1.937z" fill="currentColor"/></svg><svg fill="none" viewBox="0 0 16 17" id="icon-location" xmlns="http://www.w3.org/2000/svg"><g clip-path="url(#avclip0_81_23744)"><path fill-rule="evenodd" clip-rule="evenodd" d="M8.478 14.992l-.002.001a.86.86 0 01-.952 0h-.002l-.004-.004-.014-.009-.05-.034-.18-.127a19.607 19.607 0 01-2.513-2.159C3.43 11.297 1.894 9.269 1.894 7.03a6.107 6.107 0 0112.214 0c0 2.238-1.535 4.266-2.869 5.63a19.605 19.605 0 01-2.692 2.286l-.05.034-.014.01-.004.002zM8 14.281l-.476.713L8 14.28zm0-5.107a2.286 2.286 0 100-4.572 2.286 2.286 0 000 4.572z" fill="currentColor"/></g><defs><clipPath id="avclip0_81_23744"><path fill="#fff" transform="translate(0 .03)" d="M0 0h16v16H0z"/></clipPath></defs></svg><svg fill="none" viewBox="0 0 15 3" id="icon-minus" xmlns="http://www.w3.org/2000/svg"><path d="M1 1.5H13.056" stroke="currentColor" stroke-width="2" stroke-linecap="square"/></svg><svg fill="none" viewBox="0 0 16 17" id="icon-phone" xmlns="http://www.w3.org/2000/svg"><g clip-path="url(#axclip0_81_23739)"><path fill-rule="evenodd" clip-rule="evenodd" d="M3.586.617A2 2 0 003 2.03v12a2 2 0 002 2h6a2 2 0 002-2v-12a2 2 0 00-2-2H5a2 2 0 00-1.414.586zM10 2.28a.75.75 0 00-.75-.75h-2.5a.75.75 0 000 1.5h2.5a.75.75 0 00.75-.75z" fill="currentColor"/></g><defs><clipPath id="axclip0_81_23739"><path fill="#fff" transform="translate(0 .03)" d="M0 0h16v16H0z"/></clipPath></defs></svg><svg fill="none" viewBox="0 0 14 14" id="icon-pin" xmlns="http://www.w3.org/2000/svg"><path d="M11.594 6.125C11.594 9.406 7 12.469 7 12.469S2.406 9.406 2.406 6.125a4.594 4.594 0 119.188 0z" stroke="currentColor" stroke-width="1.5" stroke-linecap="round" stroke-linejoin="round"/><path fill-rule="evenodd" clip-rule="evenodd" d="M7 4.375a1.75 1.75 0 100 3.5 1.75 1.75 0 000-3.5z" fill="currentColor"/></svg><svg fill="none" viewBox="0 0 16 17" id="icon-pin-black" xmlns="http://www.w3.org/2000/svg"><g clip-path="url(#azclip0_81_23744)"><path fill-rule="evenodd" clip-rule="evenodd" d="M8.478 14.992l-.002.001a.86.86 0 01-.952 0h-.002l-.004-.004-.014-.009-.05-.034-.18-.127a19.607 19.607 0 01-2.513-2.159C3.43 11.297 1.894 9.269 1.894 7.03a6.107 6.107 0 0112.214 0c0 2.238-1.535 4.266-2.869 5.63a19.605 19.605 0 01-2.692 2.286l-.05.034-.014.01-.004.002zM8 14.281l-.476.713L8 14.28zm0-5.107a2.286 2.286 0 100-4.572 2.286 2.286 0 000 4.572z" fill="#76B82A"/></g><defs><clipPath id="azclip0_81_23744"><path fill="#fff" transform="translate(0 .03)" d="M0 0h16v16H0z"/></clipPath></defs></svg><svg fill="none" viewBox="0 0 15 15" id="icon-plus" xmlns="http://www.w3.org/2000/svg"><path d="M1.5 7.5h6v6M7.5 1.5v6h6" stroke="currentColor" stroke-width="2" stroke-linecap="square"/></svg><svg fill="none" viewBox="0 0 26 27" id="icon-search" xmlns="http://www.w3.org/2000/svg"><path d="M11.5 21.5a9.5 9.5 0 110-19 9.5 9.5 0 010 19z" stroke="currentColor" stroke-width="2.6" stroke-linecap="round"/><path d="M23.08 25.42a1.3 1.3 0 101.84-1.84l-1.84 1.84zm-6-6l6 6 1.84-1.84-6-6-1.84 1.84z" fill="currentColor"/></svg><svg fill="none" viewBox="0 0 62 63" id="icon-star" xmlns="http://www.w3.org/2000/svg"><path d="M28.158 6.74c1.301-2.509 4.889-2.509 6.19 0l5.39 10.388a3.487 3.487 0 002.525 1.833l11.545 1.917c2.788.463 3.896 3.875 1.913 5.887l-8.214 8.337a3.487 3.487 0 00-.964 2.967l1.745 11.573c.421 2.794-2.481 4.903-5.008 3.639l-10.467-5.236a3.487 3.487 0 00-3.12 0L19.226 53.28c-2.527 1.264-5.43-.845-5.008-3.639l1.745-11.573a3.487 3.487 0 00-.964-2.967l-8.214-8.337c-1.983-2.012-.875-5.424 1.913-5.887l11.545-1.917a3.487 3.487 0 002.524-1.833l5.39-10.389z" fill="currentColor"/></svg><svg fill="none" viewBox="0 0 16 16" id="icon-trash" xmlns="http://www.w3.org/2000/svg"><path d="M4.667 2.667a1.333 1.333 0 011.334-1.334h4a1.333 1.333 0 011.333 1.334V4h2.667a.667.667 0 010 1.333h-.713l-.578 8.095a1.334 1.334 0 01-1.33 1.239H4.62a1.334 1.334 0 01-1.33-1.24l-.576-8.094h-.713A.667.667 0 012 4h2.666V2.667zM6.001 4h4V2.667H6V4zM4.05 5.333l.571 8h6.76l.571-8H4.05zm2.617 1.334a.667.667 0 01.667.666v4a.667.667 0 01-1.333 0v-4a.667.667 0 01.666-.666zm2.667 0a.667.667 0 01.667.666v4a.667.667 0 01-1.334 0v-4a.667.667 0 01.667-.666z" fill="currentColor"/></svg><svg fill="none" viewBox="0 0 25 25" id="icon-user" xmlns="http://www.w3.org/2000/svg"><path d="M18.083 21.5H6.917a.417.417 0 01-.417-.417 4.583 4.583 0 014.583-4.583h2.834a4.583 4.583 0 014.583 4.583c0 .23-.186.417-.417.417zM12.5 13.5a3 3 0 110-6 3 3 0 010 6z" stroke="currentColor" stroke-width="2" stroke-linecap="round"/><path d="M16.5 22.5h-8a6 6 0 01-6-6v-8a6 6 0 016-6h8a6 6 0 016 6v8a6 6 0 01-6 6z" stroke="currentColor" stroke-width="2" stroke-linecap="round"/></svg></svg>