<svg width="107" height="31" fill="none" xmlns="http://www.w3.org/2000/svg"><g clip-path="url(#clip0_81_23660)"><path d="M101.5 26.722c2.077 0 3.548-.375 4.644-1.183v-3.664c-1.125.78-2.481 1.27-4.385 1.27-3.202 0-4.529-2.481-4.529-6.404 0-4.125 1.616-6.231 4.558-6.231 1.731 0 3.433.606 4.327 1.183V7.885c-.952-.52-2.596-.895-4.846-.895-5.74 0-8.712 4.126-8.712 9.895.03 6.317 2.943 9.837 8.943 9.837zm-28.068-1.674v-3.663c-1.385.952-3.75 1.788-5.914 1.788-3.288 0-4.529-1.557-4.73-4.73h10.846v-2.366c0-6.606-2.914-9.087-7.385-9.087-5.48 0-8.077 4.183-8.077 9.924 0 6.606 3.26 9.808 8.971 9.808 2.856 0 4.962-.78 6.289-1.674zM32.267 7.338v7.5h-6v-7.5h-4.5v19.01h4.5v-7.933h6v7.933h4.5V7.337h-4.5zm24.78 15.433h-1.99V7.337H41.96v1.615c0 4.644-.288 10.644-1.875 13.818h-1.442v7.904h4.154v-4.327h10.067v4.327h4.154V22.77h.029zm30.722 3.577h5.105l-7.211-10.24 6.346-8.77H87.48l-6.346 8.77v-8.77h-4.5v19.01h4.5V17l6.635 9.347zM66.134 10.51c2.22 0 2.913 1.846 2.913 4.24v.375h-6.26c.116-3.029 1.212-4.615 3.347-4.615zM50.556 22.77H44.21c1.24-2.856 1.587-8.049 1.587-11.337v-.577h4.76V22.77z" fill="#000"/><path d="M18.017 26.347h-4.586V3.644h-2.048c-3.75 0-5.712 1.875-5.712 4.674 0 3.173 1.356 4.644 4.154 6.519l2.308 1.558-6.635 9.952H.565l5.971-8.885c-3.433-2.452-5.365-4.846-5.365-8.885 0-5.048 3.52-8.48 10.183-8.48h6.634v26.25h.03z" fill="#FC3F1D"/></g><defs><clipPath id="clip0_81_23660"><path fill="#fff" transform="translate(.566 .096)" d="M0 0h105.868v30.578H0z"/></clipPath></defs></svg>